<svg width="42" height="29" viewBox="0 0 42 29" fill="none" xmlns="http://www.w3.org/2000/svg">
<path d="M29.1559 26.5882C29.1559 27.4167 29.8274 28.0882 30.6559 28.0882C31.4843 28.0882 32.1559 27.4167 32.1559 26.5882H29.1559ZM9.46551 26.5882C9.46551 27.4167 10.1371 28.0882 10.9655 28.0882C11.7939 28.0882 12.4655 27.4167 12.4655 26.5882H9.46551ZM33.8251 19.7463V18.2463C33.0028 18.2463 32.3338 18.9083 32.3252 19.7306C32.3166 20.5529 32.9716 21.2288 33.7937 21.246L33.8251 19.7463ZM33.2644 7.98338C32.436 7.98338 31.7644 8.65495 31.7644 9.48338C31.7644 10.3118 32.436 10.9834 33.2644 10.9834V7.98338ZM38.4541 26.5882C38.4541 27.4167 39.1257 28.0882 39.9541 28.0882C40.7825 28.0882 41.4541 27.4167 41.4541 26.5882H38.4541ZM8.17461 19.7463L8.20598 21.246C9.02811 21.2288 9.68313 20.5529 9.67453 19.7306C9.66593 18.9083 8.99692 18.2463 8.17461 18.2463V19.7463ZM8.73565 10.9834C9.56408 10.9834 10.2356 10.3118 10.2356 9.48338C10.2356 8.65495 9.56408 7.98338 8.73565 7.98338V10.9834ZM0.545973 26.5882C0.545973 27.4167 1.21755 28.0882 2.04597 28.0882C2.8744 28.0882 3.54597 27.4167 3.54597 26.5882H0.545973ZM26.6946 9.37647C26.6946 12.6205 24.0617 15.2529 20.8107 15.2529V18.2529C25.7157 18.2529 29.6946 14.2802 29.6946 9.37647H26.6946ZM20.8107 15.2529C17.5597 15.2529 14.9268 12.6205 14.9268 9.37647H11.9268C11.9268 14.2802 15.9057 18.2529 20.8107 18.2529V15.2529ZM14.9268 9.37647C14.9268 6.1324 17.5597 3.5 20.8107 3.5V0.5C15.9057 0.5 11.9268 4.47271 11.9268 9.37647H14.9268ZM20.8107 3.5C24.0617 3.5 26.6946 6.13241 26.6946 9.37647H29.6946C29.6946 4.47271 25.7157 0.5 20.8107 0.5V3.5ZM12.4655 26.5882C12.4655 25.2064 12.4679 24.0157 12.6067 22.9543C12.7437 21.9065 13.001 21.1071 13.4299 20.4867C14.2273 19.3336 16.0295 18.2529 20.8107 18.2529V15.2529C15.7467 15.2529 12.6263 16.374 10.9624 18.7805C10.1607 19.94 9.80267 21.2599 9.632 22.5655C9.4631 23.8574 9.46551 25.2542 9.46551 26.5882H12.4655ZM20.7781 18.2526C25.576 18.3568 27.3947 19.432 28.1975 20.5756C28.6235 21.1825 28.8789 21.9601 29.0151 22.9872C29.1534 24.0301 29.1559 25.2055 29.1559 26.5882H32.1559C32.1559 25.255 32.1584 23.8698 31.989 22.5928C31.8176 21.2998 31.4575 19.9982 30.6529 18.852C28.9944 16.4894 25.8905 15.3629 20.8433 15.2533L20.7781 18.2526ZM36.6765 14.6148C36.6765 15.807 36.3781 16.7329 35.9197 17.3244C35.5 17.8659 34.8606 18.2463 33.8251 18.2463V21.2463C35.7349 21.2463 37.2711 20.4779 38.2909 19.1622C39.2718 17.8965 39.6765 16.2567 39.6765 14.6148H36.6765ZM33.2644 10.9834C35.2747 10.9834 36.6765 12.4985 36.6765 14.6148H39.6765C39.6765 11.0631 37.1446 7.98338 33.2644 7.98338V10.9834ZM33.7937 21.246C37.2893 21.3191 38.006 22.0827 38.2293 22.506C38.387 22.8048 38.4794 23.2461 38.4968 23.9814C38.5053 24.3403 38.496 24.7279 38.483 25.1715C38.4704 25.6037 38.4541 26.0887 38.4541 26.5882H41.4541C41.4541 26.1431 41.4685 25.7104 41.4818 25.2594C41.4946 24.8197 41.5065 24.3586 41.4959 23.9105C41.4752 23.0319 41.3685 22.0269 40.8827 21.1061C39.8191 19.0903 37.4713 18.3222 33.8565 18.2466L33.7937 21.246ZM2.32357 14.6148C2.32357 16.2567 2.72816 17.8964 3.70897 19.1621C4.72862 20.4779 6.26482 21.2463 8.17461 21.2463V18.2463C7.13917 18.2463 6.49986 17.8659 6.0803 17.3245C5.62189 16.733 5.32357 15.807 5.32357 14.6148H2.32357ZM8.73565 7.98338C4.85544 7.98338 2.32357 11.0631 2.32357 14.6148H5.32357C5.32357 12.4985 6.7254 10.9834 8.73565 10.9834V7.98338ZM8.14324 18.2466C4.52844 18.3222 2.18063 19.0903 1.11718 21.1061C0.631421 22.0269 0.524838 23.032 0.504089 23.9105C0.493505 24.3587 0.50542 24.8198 0.51832 25.2594C0.531552 25.7104 0.545973 26.1432 0.545973 26.5882H3.54597C3.54597 26.0886 3.52971 25.6037 3.51703 25.1715C3.50401 24.7279 3.49478 24.3402 3.50325 23.9814C3.52062 23.246 3.613 22.8047 3.7706 22.5059C3.99386 22.0827 4.71037 21.3191 8.20598 21.246L8.14324 18.2466Z" fill="#CBCBCB"/>
</svg>
