<svg width="42" height="29" viewBox="0 0 42 29" fill="none" xmlns="http://www.w3.org/2000/svg">
<path d="M29.1558 26.5882C29.1558 27.4167 29.8274 28.0882 30.6558 28.0882C31.4842 28.0882 32.1558 27.4167 32.1558 26.5882H29.1558ZM9.46547 26.5882C9.46547 27.4167 10.137 28.0882 10.9655 28.0882C11.7939 28.0882 12.4655 27.4167 12.4655 26.5882H9.46547ZM33.8251 19.7463V18.2463C33.0028 18.2463 32.3337 18.9083 32.3251 19.7306C32.3165 20.5529 32.9716 21.2288 33.7937 21.246L33.8251 19.7463ZM33.2644 7.98338C32.4359 7.98338 31.7644 8.65495 31.7644 9.48338C31.7644 10.3118 32.4359 10.9834 33.2644 10.9834V7.98338ZM38.4541 26.5882C38.4541 27.4167 39.1256 28.0882 39.9541 28.0882C40.7825 28.0882 41.4541 27.4167 41.4541 26.5882H38.4541ZM8.17456 19.7463L8.20594 21.246C9.02806 21.2288 9.68308 20.5529 9.67448 19.7306C9.66588 18.9083 8.99687 18.2463 8.17456 18.2463V19.7463ZM8.7356 10.9834C9.56403 10.9834 10.2356 10.3118 10.2356 9.48338C10.2356 8.65495 9.56403 7.98338 8.7356 7.98338V10.9834ZM0.545928 26.5882C0.545928 27.4167 1.2175 28.0882 2.04593 28.0882C2.87435 28.0882 3.54593 27.4167 3.54593 26.5882H0.545928ZM26.6945 9.37647C26.6945 12.6205 24.0616 15.2529 20.8106 15.2529V18.2529C25.7157 18.2529 29.6945 14.2802 29.6945 9.37647H26.6945ZM20.8106 15.2529C17.5596 15.2529 14.9268 12.6205 14.9268 9.37647H11.9268C11.9268 14.2802 15.9056 18.2529 20.8106 18.2529V15.2529ZM14.9268 9.37647C14.9268 6.1324 17.5596 3.5 20.8106 3.5V0.5C15.9056 0.5 11.9268 4.47271 11.9268 9.37647H14.9268ZM20.8106 3.5C24.0616 3.5 26.6945 6.13241 26.6945 9.37647H29.6945C29.6945 4.47271 25.7157 0.5 20.8106 0.5V3.5ZM12.4655 26.5882C12.4655 25.2064 12.4679 24.0157 12.6066 22.9543C12.7436 21.9065 13.0009 21.1071 13.4299 20.4867C14.2272 19.3336 16.0295 18.2529 20.8106 18.2529V15.2529C15.7466 15.2529 12.6263 16.374 10.9623 18.7805C10.1607 19.94 9.80263 21.2599 9.63195 22.5655C9.46305 23.8574 9.46547 25.2542 9.46547 26.5882H12.4655ZM20.7781 18.2526C25.576 18.3568 27.3947 19.432 28.1975 20.5756C28.6235 21.1825 28.8788 21.9601 29.015 22.9872C29.1533 24.0301 29.1558 25.2055 29.1558 26.5882H32.1558C32.1558 25.255 32.1583 23.8698 31.989 22.5928C31.8175 21.2998 31.4575 19.9982 30.6529 18.852C28.9944 16.4894 25.8905 15.3629 20.8432 15.2533L20.7781 18.2526ZM36.6765 14.6148C36.6765 15.807 36.3781 16.7329 35.9196 17.3244C35.5 17.8659 34.8605 18.2463 33.8251 18.2463V21.2463C35.7348 21.2463 37.2711 20.4779 38.2908 19.1622C39.2718 17.8965 39.6765 16.2567 39.6765 14.6148H36.6765ZM33.2644 10.9834C35.2746 10.9834 36.6765 12.4985 36.6765 14.6148H39.6765C39.6765 11.0631 37.1446 7.98338 33.2644 7.98338V10.9834ZM33.7937 21.246C37.2893 21.3191 38.006 22.0827 38.2293 22.506C38.3869 22.8048 38.4793 23.2461 38.4967 23.9814C38.5052 24.3403 38.496 24.7279 38.483 25.1715C38.4703 25.6037 38.4541 26.0887 38.4541 26.5882H41.4541C41.4541 26.1431 41.4685 25.7104 41.4817 25.2594C41.4946 24.8197 41.5065 24.3586 41.4959 23.9105C41.4751 23.0319 41.3685 22.0269 40.8826 21.1061C39.8191 19.0903 37.4712 18.3222 33.8564 18.2466L33.7937 21.246ZM2.32353 14.6148C2.32353 16.2567 2.72811 17.8964 3.70892 19.1621C4.72857 20.4779 6.26478 21.2463 8.17456 21.2463V18.2463C7.13912 18.2463 6.49981 17.8659 6.08025 17.3245C5.62185 16.733 5.32353 15.807 5.32353 14.6148H2.32353ZM8.7356 7.98338C4.8554 7.98338 2.32353 11.0631 2.32353 14.6148H5.32353C5.32353 12.4985 6.72536 10.9834 8.7356 10.9834V7.98338ZM8.14319 18.2466C4.5284 18.3222 2.18058 19.0903 1.11713 21.1061C0.631375 22.0269 0.524793 23.032 0.504044 23.9105C0.49346 24.3587 0.505374 24.8198 0.518275 25.2594C0.531507 25.7104 0.545928 26.1432 0.545928 26.5882H3.54593C3.54593 26.0886 3.52967 25.6037 3.51698 25.1715C3.50397 24.7279 3.49473 24.3402 3.50321 23.9814C3.52058 23.246 3.61295 22.8047 3.77055 22.5059C3.99382 22.0827 4.71032 21.3191 8.20594 21.246L8.14319 18.2466Z" fill="white"/>
</svg>
