<svg width="32" height="31" viewBox="0 0 32 31" fill="none" xmlns="http://www.w3.org/2000/svg">
<path d="M10.0061 5.56238L11.0255 6.66271V6.66271L10.0061 5.56238ZM14.3819 2.2459L14.827 3.67835L14.3819 2.2459ZM21.9939 5.56238L20.9745 6.6627L21.9939 5.56238ZM17.6181 2.2459L17.173 3.67835L17.6181 2.2459ZM5.05765 28.205L4.3609 29.5334L5.05765 28.205ZM2.61036 25.6857L1.26602 26.3511L2.61036 25.6857ZM29.3896 25.6857L30.734 26.3511L29.3896 25.6857ZM26.9423 28.205L27.6391 29.5334L26.9423 28.205ZM29.824 14.1134L31.2794 13.7503L29.824 14.1134ZM27.0339 10.2319L28.0534 9.13158L27.0339 10.2319ZM29.0639 12.3564L30.3241 11.5428L29.0639 12.3564ZM2.17603 14.1134L0.720637 13.7503L2.17603 14.1134ZM4.96608 10.2319L3.94663 9.13158L3.94663 9.13158L4.96608 10.2319ZM2.93613 12.3564L1.67594 11.5428L2.93613 12.3564ZM18.0725 18.453L17.6843 19.9019L18.0725 18.453ZM20.5474 20.9279L21.9963 20.5397V20.5397L20.5474 20.9279ZM13.9275 18.453L13.5392 17.0042L13.9275 18.453ZM11.4526 20.9279L10.0037 20.5397L11.4526 20.9279ZM28.5 17.0879V19.6096H31.5V17.0879H28.5ZM21.04 27.3333H10.96V30.3333H21.04V27.3333ZM3.5 19.6096V17.0879H0.5V19.6096H3.5ZM5.98553 11.3322L11.0255 6.66271L8.98662 4.46205L3.94663 9.13158L5.98553 11.3322ZM20.9745 6.6627L26.0145 11.3322L28.0534 9.13158L23.0134 4.46205L20.9745 6.6627ZM11.0255 6.66271C12.1021 5.66526 12.847 4.97659 13.4696 4.48424C14.0783 4.00292 14.476 3.78739 14.827 3.67835L13.9368 0.813449C13.0898 1.07662 12.3589 1.53792 11.6088 2.13107C10.8727 2.71319 10.0286 3.49665 8.98662 4.46205L11.0255 6.66271ZM23.0134 4.46205C21.9714 3.49665 21.1273 2.71319 20.3912 2.13107C19.6411 1.53792 18.9102 1.07662 18.0632 0.813449L17.173 3.67835C17.524 3.78739 17.9217 4.00292 18.5304 4.48424C19.153 4.97659 19.8979 5.66526 20.9745 6.6627L23.0134 4.46205ZM14.827 3.67835C15.5923 3.44055 16.4077 3.44055 17.173 3.67835L18.0632 0.813449C16.7181 0.395517 15.2819 0.395517 13.9368 0.813449L14.827 3.67835ZM10.96 27.3333C9.36638 27.3333 8.26402 27.3321 7.40765 27.2601C6.57011 27.1896 6.10287 27.0594 5.75441 26.8766L4.3609 29.5334C5.21034 29.9789 6.12612 30.1629 7.15621 30.2495C8.16746 30.3346 9.41732 30.3333 10.96 30.3333V27.3333ZM0.5 19.6096C0.5 21.1998 0.498899 22.4802 0.580998 23.5146C0.664388 24.5653 0.840659 25.4917 1.26602 26.3511L3.95471 25.0203C3.7697 24.6465 3.64079 24.1491 3.57159 23.2772C3.5011 22.389 3.5 21.2479 3.5 19.6096H0.5ZM5.75441 26.8766C4.98627 26.4737 4.35372 25.8264 3.95471 25.0203L1.26602 26.3511C1.94079 27.7143 3.02162 28.8309 4.3609 29.5334L5.75441 26.8766ZM28.5 19.6096C28.5 21.2479 28.4989 22.389 28.4284 23.2772C28.3592 24.1491 28.2303 24.6465 28.0453 25.0203L30.734 26.3511C31.1593 25.4917 31.3356 24.5653 31.419 23.5146C31.5011 22.4802 31.5 21.1998 31.5 19.6096H28.5ZM21.04 30.3333C22.5827 30.3333 23.8325 30.3346 24.8438 30.2495C25.8739 30.1629 26.7897 29.9789 27.6391 29.5334L26.2456 26.8766C25.8971 27.0594 25.4299 27.1896 24.5924 27.2601C23.736 27.3321 22.6336 27.3333 21.04 27.3333V30.3333ZM28.0453 25.0203C27.6463 25.8264 27.0137 26.4737 26.2456 26.8766L27.6391 29.5334C28.9784 28.8309 30.0592 27.7143 30.734 26.3511L28.0453 25.0203ZM31.5 17.0879C31.5 15.6503 31.5104 14.6764 31.2794 13.7503L28.3686 14.4765C28.4896 14.9615 28.5 15.5003 28.5 17.0879H31.5ZM26.0145 11.3322C27.1622 12.3956 27.5381 12.7587 27.8037 13.17L30.3241 11.5428C29.8063 10.7408 29.09 10.092 28.0534 9.13158L26.0145 11.3322ZM31.2794 13.7503C31.0838 12.9662 30.7612 12.22 30.3241 11.5428L27.8037 13.17C28.0608 13.5683 28.2522 14.0099 28.3686 14.4765L31.2794 13.7503ZM3.5 17.0879C3.5 15.5002 3.51042 14.9615 3.63142 14.4765L0.720637 13.7503C0.489575 14.6765 0.5 15.6503 0.5 17.0879H3.5ZM3.94663 9.13158C2.91001 10.092 2.19374 10.7408 1.67594 11.5428L4.19631 13.17C4.4619 12.7587 4.83779 12.3956 5.98553 11.3322L3.94663 9.13158ZM3.63142 14.4765C3.74783 14.0099 3.93917 13.5683 4.19631 13.17L1.67594 11.5428C1.23879 12.22 0.916247 12.9662 0.720637 13.7503L3.63142 14.4765ZM19.1667 23.0004V28.8338H22.1667V23.0004H19.1667ZM12.8333 28.8338V23.0004H9.83333V28.8338H12.8333ZM16 19.8338C17.1815 19.8338 17.4781 19.8467 17.6843 19.9019L18.4608 17.0042C17.7768 16.8209 16.9884 16.8338 16 16.8338V19.8338ZM22.1667 23.0004C22.1667 22.0121 22.1796 21.2236 21.9963 20.5397L19.0985 21.3161C19.1538 21.5224 19.1667 21.8189 19.1667 23.0004H22.1667ZM17.6843 19.9019C18.3745 20.0869 18.9136 20.626 19.0985 21.3161L21.9963 20.5397C21.534 18.8142 20.1862 17.4665 18.4608 17.0042L17.6843 19.9019ZM16 16.8338C15.0116 16.8338 14.2232 16.8209 13.5392 17.0042L14.3157 19.9019C14.5219 19.8467 14.8185 19.8338 16 19.8338V16.8338ZM12.8333 23.0004C12.8333 21.8189 12.8462 21.5224 12.9015 21.3161L10.0037 20.5397C9.82045 21.2236 9.83333 22.0121 9.83333 23.0004H12.8333ZM13.5392 17.0042C11.8138 17.4665 10.466 18.8142 10.0037 20.5397L12.9015 21.3161C13.0864 20.626 13.6255 20.0869 14.3157 19.9019L13.5392 17.0042Z" fill="#CBCBCB"/>
</svg>
